<?xml version="1.0" encoding="UTF-8"?>
<svg id="Layer_1" data-name="Layer 1" xmlns="http://www.w3.org/2000/svg" viewBox="0 0 439.32 710.82">
  <defs>
    <style>
      .cls-1 {
        fill: #f1f2f2;
      }

      .cls-2 {
        fill: #c2b59b;
      }

      .cls-3 {
        fill: #a49c8d;
      }

      .cls-4 {
        fill: #231f20;
      }

      .cls-5 {
        fill: #f5d924;
      }

      .cls-5, .cls-6, .cls-7, .cls-8, .cls-9 {
        stroke-miterlimit: 10;
        stroke-width: 2px;
      }

      .cls-5, .cls-6, .cls-7, .cls-8, .cls-9, .cls-10 {
        stroke: #231f20;
      }

      .cls-6 {
        fill: #0a0a0a;
      }

      .cls-7 {
        fill: #353d98;
      }

      .cls-8 {
        fill: #302e2f;
      }

      .cls-9, .cls-10 {
        fill: none;
      }

      .cls-10 {
        stroke-linecap: round;
        stroke-linejoin: round;
        stroke-width: .5px;
      }
    </style>
  </defs>
  <g>
    <path class="cls-6" d="M38.2,592.01l166.08-47.21,31.19-51.43,10.96,39.93,60.25-16.99,66.46-307.78-215.33,1.36-52.6-101.34C23.72,178.35-43.74,381.14,38.2,592.01Z"/>
    <polygon class="cls-7" points="136.32 168.48 121.54 306.65 77.63 293.81 55.08 355.18 89.89 411.09 119.43 402.12 133.67 373.64 157.82 458.03 277.15 481.77 362.34 437.96 373.15 171.09 136.32 168.48"/>
    <path class="cls-5" d="M275.68,481.77l-6.25-44.45s36.69-42.05,45.13-59.46l-53.88,18.32-.95-18.85-20.57,4.75,12.65-32.3-35.21-202.96,155.08-21.63-10.81,312.76-85.19,43.81Z"/>
    <g>
      <g>
        <path class="cls-1" d="M368.85,279.28c1.7,1.88,1.16,4.84-1.18,5.81l-35.73,14.88c.06-10.54-19.98-42.24-21.17-44.09-.03-.06-.05-.09-.05-.09,20.14-1.75,42.19,5.93,58.13,23.48Z"/>
        <path class="cls-4" d="M310.77,255.89c1.19,1.85,21.23,33.55,21.17,44.09l-21.17-44.09Z"/>
        <path class="cls-4" d="M310.77,255.89l21.17,44.09-34.95,14.54-18.81-45.49c8.99-7.74,20.42-12.19,32.55-13.22l.05,.09Z"/>
        <path class="cls-1" d="M310.77,255.89l-.05-.09s.02,.03,.05,.09Z"/>
        <path class="cls-4" d="M278.17,269.02l18.81,45.49c-10.26-10.6-18.81-45.49-18.81-45.49Z"/>
        <path class="cls-1" d="M296.99,314.52l-36.33,15.13c-4.76-28.1,3.34-48.45,17.51-60.62,0,0,8.56,34.89,18.81,45.49Z"/>
      </g>
      <g>
        <path class="cls-9" d="M278.17,269.02c-14.17,12.18-22.28,32.52-17.51,60.62l36.33-15.13,34.95-14.54,35.73-14.88c2.34-.97,2.88-3.93,1.18-5.81-15.94-17.55-37.99-25.23-58.13-23.48-12.13,1.03-23.56,5.48-32.55,13.22Z"/>
        <path class="cls-9" d="M278.17,269.02s8.56,34.89,18.81,45.49"/>
        <line class="cls-9" x1="296.99" y1="314.52" x2="278.17" y2="269.02"/>
        <path class="cls-9" d="M310.72,255.8s.02,.03,.05,.09c1.19,1.85,21.23,33.55,21.17,44.09"/>
        <polyline class="cls-9" points="331.94 299.97 310.77 255.89 310.72 255.8"/>
      </g>
    </g>
    <g>
      <g>
        <polygon class="cls-1" points="231.73 293.64 210.69 336.38 197.87 285.04 231.73 293.64"/>
        <polygon class="cls-4" points="210.69 336.38 201.27 355.54 168.44 341.51 158.64 300.07 157.47 299.12 173.73 278.91 197.87 285.04 210.69 336.38"/>
        <polygon class="cls-1" points="158.64 300.07 168.44 341.51 134.88 327.16 157.47 299.12 158.64 300.07"/>
      </g>
      <g>
        <polygon class="cls-9" points="157.47 299.12 173.73 278.91 197.87 285.04 231.73 293.64 210.69 336.38 201.27 355.54 168.44 341.51 134.88 327.16 157.47 299.12"/>
        <line class="cls-9" x1="158.64" y1="300.07" x2="168.44" y2="341.51"/>
        <line class="cls-9" x1="197.87" y1="285.04" x2="210.69" y2="336.38"/>
      </g>
    </g>
    <path class="cls-6" d="M338.86,79.83c-71.9-29.67-174.89-16.16-226.81,23.21-2.29,1.73-4.56,3.58-6.83,5.52l31.1,59.92c2.08,29.5,10.01,80.15,10.01,80.15,15.94-22.68,213.89-43.52,216.87-34.85,7.57,4.52-5.88,298.32,0,318,30.78-19.15,150.25-429.13-24.34-451.95Z"/>
    <path class="cls-8" d="M377.65,5.83c-13.39-4.93-26.81,49.23-26.4,59.07,5.02,10.02,60.29-8.13,61.72-17.76,1.43-9.63-21.93-36.38-35.32-41.31Z"/>
    <path class="cls-8" d="M295.4,11.31c-8.48,8.07,28.53,43.79,36.24,48.07,9.48,.8,14.83-50.51,7.92-56.11-6.91-5.61-35.68-.02-44.16,8.04Z"/>
  </g>
  <g>
    <g>
      <polygon class="cls-3" points="391.78 709.78 410.52 709.26 410.52 709.78 391.78 709.78"/>
      <path class="cls-2" d="M379.47,523.44l13.46,22.94s-.06,.04-.16,.11l-.21,.13-24.02,15.54c-.15,.09-.29,.18-.44,.27-17.27,10.89-38.6,23.68-46.77,25.89l-27.19-42.73,48.55-22.15h36.78Z"/>
      <path class="cls-4" d="M187.19,618.76l-.12,.04v.18l.12-.22Zm223.33,3.99H175.25v86.51l-9.92-.27-17.82-80.32,47.85-82.29s.06,.04,.16,.11l22.34,16.07-30.66,56.2h5.44s200.49-.01,200.49-.01h.02s5.42,.01,5.42,.01l-30.66-56.2,.19-.13c.15-.09,.29-.18,.44-.27,12.04-7.6,22.02-14.21,24.02-15.54,.08-.05,.15-.09,.21-.13,.1-.07,.16-.11,.16-.11l45.33,82.29-17.82,80.32-9.92,.27v-86.51Z"/>
      <path class="cls-4" d="M392.56,546.62l.21-.13c-.06,.04-.13,.08-.21,.13Z"/>
      <path class="cls-4" d="M368.54,562.16l24.02-15.54c-2,1.33-11.98,7.94-24.02,15.54Z"/>
      <polygon class="cls-3" points="193.99 709.78 179.34 653.23 292.89 652.81 406.43 653.23 391.78 709.78 193.99 709.78"/>
      <polygon class="cls-3" points="342.69 523.44 294.14 545.59 242.04 523.44 342.69 523.44"/>
      <path class="cls-2" d="M294.14,545.59l-27.18,42.73c-14.18-3.84-68.08-39.6-71.44-41.83-.1-.07-.16-.11-.16-.11l13.45-22.94h33.23l52.1,22.15Z"/>
      <path class="cls-2" d="M195.52,546.49c3.36,2.23,57.26,37.99,71.44,41.83l27.18-42.73,27.19,42.73c8.17-2.21,29.5-15,46.77-25.89l-.19,.13,30.66,56.2h-5.44s-200.49-.01-200.49-.01h-.02s-5.42,.01-5.42,.01l30.66-56.2-22.34-16.07Z"/>
      <polygon class="cls-3" points="175.25 709.26 193.99 709.78 175.25 709.78 175.25 709.26"/>
      <polygon class="cls-4" points="179.34 653.23 193.99 709.78 175.25 709.26 175.25 622.75 410.52 622.75 410.52 709.26 391.78 709.78 406.43 653.23 292.89 652.81 179.34 653.23"/>
    </g>
    <g>
      <polyline class="cls-10" points="410.52 709.26 410.52 709.78 391.78 709.78 193.99 709.78 175.25 709.78 175.25 709.26"/>
      <path class="cls-9" d="M368.1,562.43c-17.27,10.89-38.6,23.68-46.77,25.89l-27.19-42.73"/>
      <polyline class="cls-9" points="342.69 523.44 346.24 523.44 379.47 523.44 392.93 546.38"/>
      <polyline class="cls-9" points="195.36 546.38 208.81 523.44 242.04 523.44"/>
      <path class="cls-9" d="M294.14,545.59l-27.18,42.73c-14.18-3.84-68.08-39.6-71.44-41.83"/>
      <polygon class="cls-9" points="294.14 545.59 342.69 523.44 242.04 523.44 294.14 545.59"/>
      <path class="cls-9" d="M392.93,546.38s-.06,.04-.16,.11l-.21,.13-24.02,15.54c-.15,.09-.29,.18-.44,.27l-.19,.13,30.66,56.2h-5.44s-200.49-.01-200.49-.01h-.02s-5.42,.01-5.42,.01l30.66-56.2-22.34-16.07c-.1-.07-.16-.11-.16-.11l-47.85,82.29,17.82,80.32,9.92,.27,18.74,.52-14.65-56.55,113.55-.42,113.54,.42-14.65,56.55,18.74-.52,9.92-.27,17.82-80.32-45.33-82.29Z"/>
      <polygon class="cls-9" points="187.07 618.98 187.07 618.8 187.19 618.76 187.07 618.98"/>
    </g>
  </g>
</svg>