<?xml version="1.0" encoding="UTF-8"?>
<svg id="Layer_2" data-name="Layer 2" xmlns="http://www.w3.org/2000/svg" viewBox="0 0 260.56 335.84">
  <defs>
    <style>
      .cls-1 {
        fill: #fff;
      }
    </style>
  </defs>
  <g id="Layer_1-2" data-name="Layer 1">
    <path class="cls-1" d="M260.36,221.46c-14.52-19.3-20.4-38.52-23.31-57.93,9.38-16.3,18.99-37.45,22.01-48.09,5.43-19.15-5.03-28.77-13.38-31.13-5.48-1.55-10.33,6.15-14.56,17.04-2.23-15.3-6.21-30.88-14.42-46.85C189.35,1.28,120.53-15.07,68.72,14.84,16.9,44.76-1.48,111.38,29.06,162.83c.46,.77,.91,1.55,1.37,2.35-11.84-7.91-22.52-12.92-26.46-7.69-5.21,6.95-7.71,20.93,8.2,32.89,7.88,5.92,25.87,15.94,42.66,23.7,18.11,37.21,41.48,80.77,78.52,111.91,1.3,1.1,2.63,2.19,3.97,3.25,1.46,1.16,2.93,2.3,4.43,3.42,8.06,4.77,18.57,4.25,26.2-2.04,9.75-8.04,11.13-22.46,3.09-32.2-.95-1.16-1.99-2.19-3.11-3.11-6.94-7.27,2.57-16.67,10.3-9.14,.24,.32,.48,.63,.73,.93,8.04,9.74,22.46,11.13,32.2,3.09,9.75-8.04,11.13-22.45,3.09-32.2-.61-.74-1.93-2.06-1.93-2.06-7-7.51-.49-18.41,12.53-11.12,8.27,6.49,20.21,6.6,28.66-.37,8.87-7.33,6.85-22.98,6.85-22.98ZM78.31,72.08c-9.02,1.45-13.91,17.64-15.36,8.62-1.45-9.02,4.68-17.51,13.7-18.96,9.02-1.45,17.5,4.68,18.96,13.7,1.45,9.02-8.28-4.81-17.3-3.36Zm32.33,61.99c-7.54,0-13.65-8.49-13.65-18.97s6.11-18.98,13.65-18.98,13.65,8.5,13.65,18.98-6.11,18.97-13.65,18.97Zm43.58-62.37c-9.02,1.45-13.91,17.63-15.36,8.62-1.46-9.02,4.68-17.51,13.7-18.96,9.01-1.46,17.5,4.68,18.96,13.7,1.45,9.01-8.28-4.82-17.3-3.36Z"/>
  </g>
</svg>